<svg xmlns="http://www.w3.org/2000/svg" viewBox="0 0 835.09 835.1"><defs><style>.cls-1{fill:#60452b;}</style></defs><g id="Camada_2" data-name="Camada 2"><g id="Camada_1-2" data-name="Camada 1"><path class="cls-1" d="M418,0C643.15.22,829.9,183.25,835,408,840.25,641.14,650.69,832.7,422.1,835.07,191.75,837.46,1.42,649.18,0,420.1-1.41,189.83,188.17-.18,418,0ZM670.46,701.91c107.13-89.84,165.93-253.47,107-416C717.9,121.5,553.73,19,378.41,36.33,205.09,53.47,64.39,187.52,38.58,361.18,25.85,446.77,41,527.76,83.42,603.32a368.44,368.44,0,0,0,82.22,99.95c1-57.33,18.59-107.55,53.4-151.44s79.75-72.87,135-88.52c-34.52-15.06-60-38.53-78.48-69.47-18.69-31.25-26.94-65.14-23.24-101.49,3.67-36.07,17.84-67.72,42.12-94.72,63.11-70.2,173.07-73.22,239.86-6.31,33.17,33.23,50.4,73.74,48.74,120.7-2.5,70.53-35.61,121.78-99.57,150.85C594.69,504.11,660.6,580.78,670.46,701.91Z"/></g></g></svg>